<svg xmlns="http://www.w3.org/2000/svg" data-name="Layer 1" width="698" height="698"><defs><linearGradient id="a" x1="349" y1="698" x2="349" gradientUnits="userSpaceOnUse"><stop offset="0" stop-color="gray" stop-opacity=".3"/><stop offset=".5" stop-color="gray" stop-opacity=".1"/><stop offset="1" stop-color="gray" stop-opacity=".1"/></linearGradient></defs><circle cx="349" cy="349" r="349" fill="url(#a)" opacity=".5"/><circle cx="349.7" cy="346.8" r="341.6" fill="#f5f5f5"/><path d="M350 689.8a340 340 0 0 0 187.8-56.2c-12.6-68.8-60.5-72.8-60.5-72.8H213s-45.2 3.7-59.3 67a340 340 0 0 0 196.2 62Z" fill="#658fff"/><circle cx="346.4" cy="339.6" r="164.9" fill="#333"/><path d="M293.1 477h105.7v84.5a52.8 52.8 0 0 1-52.8 52.8 52.8 52.8 0 0 1-52.8-52.8v-84.6Z" opacity=".1"/><path d="M296.5 473h99a3.4 3.4 0 0 1 3.4 3.4v81.1a52.8 52.8 0 0 1-52.9 52.9 52.8 52.8 0 0 1-52.8-52.9v-81.1a3.4 3.4 0 0 1 3.3-3.4Z" fill="#fdb797"/><path d="M293.3 516.8a152 152 0 0 0 105.7.3v-13H293.3Z" opacity=".1"/><circle cx="346.4" cy="372.4" r="151.4" fill="#fdb797"/><path d="M238.5 234.7s63.8 129.5 243.9 54.3l-42-65.7-74.3-26.7Z" opacity=".1"/><path d="M238.5 232.8s63.8 129.5 243.9 54.3l-42-65.8-74.3-26.6Z" fill="#333"/><path d="M238 224a87.5 87.5 0 0 1 21.6-35.3c29.8-29.4 78.6-35.6 103.7-69.2 6 9.3 1.4 23.6-9 27.6 24-.1 51.8-2.2 65.4-22a44.9 44.9 0 0 1-7.6 47.4c21.3 1 44 15.4 45.3 36.7 1 14.2-8 27.6-19.5 35.7s-25.7 11.8-39.6 14.9c-40.4 8.9-186.8 46.3-160.4-35.8Z" fill="#333"/><ellipse cx="194.9" cy="372.3" rx="14.1" ry="26.4" fill="#fdb797"/><ellipse cx="497.8" cy="372.3" rx="14.1" ry="26.4" fill="#fdb797"/></svg>