<svg xmlns="http://www.w3.org/2000/svg" data-name="Layer 1" width="732.6" height="638.9"><path d="M121.5 222.4a33.5 33.5 0 0 1-5.1.1 1.1 1.1 0 0 0-1.3 1l-3.3 24.7a10 10 0 0 1-2 4.9 10.7 10.7 0 0 0-2.5 8.1v42s-.2 5.6 4 5.6a62.1 62.1 0 0 0 15.6 0s3.4-.7 3.4-5.8v-41.3a10.1 10.1 0 0 0-2.1-8.2 10.3 10.3 0 0 1-2-5l-3.5-25.1a1.1 1.1 0 0 0-1.2-1Z" fill="#fff"/><path d="M119.1 310a62.7 62.7 0 0 1-7.8-.5 4.2 4.2 0 0 1-3-1.3c-1.8-1.8-1.7-5-1.7-5v-42a11.4 11.4 0 0 1 2.6-8.6 9.3 9.3 0 0 0 2-4.5l3.2-24.7a1.8 1.8 0 0 1 2-1.6 32.7 32.7 0 0 0 5 0 1.8 1.8 0 0 1 2 1.5l3.4 25.2a9.6 9.6 0 0 0 2 4.5 10.8 10.8 0 0 1 2.2 8.7V303c0 5.6-4 6.4-4 6.5a63.1 63.1 0 0 1-7.9.5Zm-2.8-86.8a.4.4 0 0 0-.5.4l-3.3 24.7a10.7 10.7 0 0 1-2.2 5.2 10 10 0 0 0-2.3 7.7v42s0 2.6 1.3 4a2.8 2.8 0 0 0 2 .9h.2a61.5 61.5 0 0 0 15.3 0s2.8-.7 2.8-5.1v-41.5a9.4 9.4 0 0 0-2-7.6 11 11 0 0 1-2.2-5.2l-3.4-25.2a.4.4 0 0 0-.4-.4 34.4 34.4 0 0 1-5.3.1Z" fill="#3f3d56"/><path d="M116.3 262h5.2a7.8 7.8 0 0 1 7.9 7.8v19.6a7.8 7.8 0 0 1-7.9 7.9h-5.2a7.8 7.8 0 0 1-7.8-7.9v-19.6a7.8 7.8 0 0 1 7.8-7.8Z" fill="#658fff"/><path fill="#9f616a" d="M20.4 622.4h17l8.1-65.6H20.4v65.6z"/><path d="M16 616.9h33.6a21.3 21.3 0 0 1 21.3 21.3v.7H16.1ZM9.7 388.2s-7.3 8.3 4.9 40.8l-2.2 178 39.6-.7 8.7-86.9 15.8-126.7Z" fill="#2f2e41"/><path d="M90 412.8h-.4C39 405 1 397.5.5 397.4H0l13.3-32.3c-.1-3.4-3-98 2.5-125.2 5.3-26.4 30.4-30.7 33.2-31l3-9.6 36.2 18.9 6.3 21.7 1.3 59.7Z" fill="#3f3d56"/><path d="M111.9 290a11.8 11.8 0 0 0-8.7 3.8h-61L20 298.6l3.7 28.2 79.4-17A11.9 11.9 0 1 0 112 290Z" fill="#9f616a"/><circle cx="320.3" cy="305.2" r="29.4" transform="rotate(-61.3 93.4 437)" fill="#9f616a"/><path d="m59 151.2-1.4-2.9 7.2-3.6s7.9-12.8 22.2-9.2 20.7 5.8 20.7 5.8l7.2 3.6-3.6 3.5 6.4 2.2-4.3 2.1 5 2.9-2.7 14.7s-4.5-11.1-13-6.9-24.4-2.2-24.4-2.2l-13.6 26.5s-2.9-9.3-7.9-6.8c0 0-12.8-20.5 2.2-29.7Z" fill="#2f2e41"/><path d="m24 332.1-7-20.7-1.7-69 3-9.9a27.4 27.4 0 1 1 51.7 18l-15.9 40.7.8 1.6 34.5-.3 12.3 22Z" fill="#3f3d56"/><path d="M369 323.6a10.6 10.6 0 0 0 1.6-16.2l17-33.6-19.4 2.2-13.2 31.7a10.7 10.7 0 0 0 14 16ZM505.2 562.1h-15.3l-7.3-59.1h22.6v59.1z" fill="#ffb7b7"/><path d="M509.1 577h-49.3v-.7A19.2 19.2 0 0 1 479 557H509Z" fill="#2f2e41"/><path fill="#ffb7b7" d="M421.5 562.1h-15.3l-7.3-59.1h22.6v59.1z"/><path d="M421.7 577h-49.4v-.7a19.2 19.2 0 0 1 19.2-19.2h30.2ZM420.3 312.6l-15 34.5-12.4 198.5 31.3-1.2 8.5-94.7 26.3-84.2 15.1 93.9 6.3 82.5 25.8 1.1 10.3-230.4h-96.2z" fill="#2f2e41"/><path d="m495.2 142.2-43.4 1-25.5 13.1-1.4 96.7-16 66.7s99.5 6.8 113.2-3.2l-16.2-76.2 21.7-82.4Z" fill="#658fff"/><path d="m433 158-4-2.8s-16.8 5-21.8 27.4c0 0-3.8 11.2-5.4 18.9-2 8.8-44 90-44 90l25.2 7.3 46.2-74.8Z" fill="#658fff"/><path d="M527 336a10.6 10.6 0 0 1 2.8-16l-7-37 18 7.5 4 34A10.7 10.7 0 0 1 527 336Z" fill="#ffb7b7"/><path d="m521.1 159.1 4.6-1.5s14.8 9.4 13.4 32.3c0 0 .5 11.8 0 19.7-.6 9 7.5 98.7 7.5 98.7h-26.2L509 227Z" fill="#658fff"/><path d="M505.9 101.6a30.1 30.1 0 1 1-30.1-30.1 30 30 0 0 1 30 30v.1Z" fill="#ffb7b7"/><path d="M445.7 61.2c3.6-7.6 10.4-6.1 16.4-3.6C469.6 56 476.8 51 485 54c8 11.7 35 8.3 29.2 27.3 0 4.5 8.6 1.9 7 9.3 4.6 14.4-16.3 41.6-28.3 35.8 3-5.4 9.7-17.8-.6-19-22.1 20.6-2.3-39.3-30.1-21.9-9.2 8.5-21.8-15.8-16.5-24.2Z" fill="#2f2e41"/><path d="M532.2 339a10 10 0 0 0 12-9.6l75.6-71.2-17-13.5-69 74.4a10 10 0 0 0-1.6 20Z" fill="#9f616a"/><path d="m609.1 269.8-14.7-17.3a4.5 4.5 0 0 1 1-6.7l19.2-12a12.5 12.5 0 0 1 16.1 19l-14.8 17a4.5 4.5 0 0 1-6.8 0Z" fill="#cbcbcb"/><path fill="#9f616a" d="M569.6 621h-18.5l-8.8-71.3h27.3V621z"/><path d="M574.3 639h-59.6v-.8a23.2 23.2 0 0 1 23.2-23.2h36.4Z" fill="#2f2e41"/><path fill="#9f616a" d="M717.4 621h-18.5l-8.8-71.3h27.3V621z"/><path d="M722 639h-59.5v-.8a23.2 23.2 0 0 1 23.2-23.2H722ZM667.6 307.6l18.7-69-24.2-13.5h-33.8l-13 14s-22 15.3-16.7 32.2l8.5 38.5-13 61.2-66 91.5-15.7 89.9 61.5 16.1 66.5-131 32.3 145 60-3L712 403.8s-6-53.6-36.8-87Z" fill="#2f2e41"/><path d="M706.1 368.5a10 10 0 0 0-1.3-15.3l-14.4-97.6-20.8 6.6 20.8 94a10 10 0 0 0 15.7 12.3Z" fill="#9f616a"/><path d="m694 271-22.6 2.5a4.5 4.5 0 0 1-5-4.6l.8-22.6a12.5 12.5 0 0 1 24.7-2.7l5.9 21.7a4.5 4.5 0 0 1-3.8 5.6Z" fill="#cbcbcb"/><path d="M607.5 205.5v-29a38.9 38.9 0 1 1 77.7 0v29a5.2 5.2 0 0 1-5.2 5.2h-67.3a5.2 5.2 0 0 1-5.2-5.2Z" fill="#2f2e41"/><circle cx="872" cy="312.1" r="28.5" transform="rotate(-28.7 499.7 704.2)" fill="#9f616a"/><path d="M598.3 178.8a30.8 30.8 0 0 1 30.7-30.7h5.8a30.8 30.8 0 0 1 30.8 30.7v.6h-12.3l-4.2-11.7-.8 11.7H642l-2.1-5.9-.5 6h-41.1Z" fill="#2f2e41"/><path d="M635.6 214a5.1 5.1 0 0 1-.5-5.5c6.2-11.7 14.8-33.3 3.4-46.6l-.8-1h33.1v49.9l-30.1 5.3a5.3 5.3 0 0 1-1 0 5.2 5.2 0 0 1-4.1-2.1Z" fill="#2f2e41"/><path d="M330.6 240.5a11.5 11.5 0 0 0-1.2 1.4l-54-1.3-6.3-11.5-18.7 7.2 9.2 21.5a8.7 8.7 0 0 0 9 5.2l61.2-7.3a11.4 11.4 0 1 0 .8-15.2ZM154.4 568.8h17.7l8.5-68.5h-26.2v68.5z" fill="#ffb7b7"/><path d="M149.8 563h35a22.3 22.3 0 0 1 22.4 22.3v.8h-57.4Z" fill="#2f2e41"/><path fill="#ffb7b7" d="m315.8 568.4 16.3-6.9-19.1-66.4-24.2 10.3 27 63z"/><path d="m309.3 564.9 32.2-13.8a22.3 22.3 0 0 1 29.3 11.8l.3.7-52.7 22.5Z" fill="#2f2e41"/><path fill="#ffb7b7" d="m240.8 255.4 1.3 20.8-37.6 4-39.3 4.2 11.5-31.6 64.1 2.6z"/><path d="M242 262.9c-.3-.2-42.8-16.7-68.8-3.2l-.7.3-5.2-25.6-3-55 19.3-9.1 5.3-12 36.2-2 7.4 10.1 25.3 8.3-15 88.4Z" fill="#e4e4e4"/><path d="M243.4 213.2 248 178l10.2-3h.1c.3 0 5.8 2.2 7.3 9.9 1.5 7.3 12.4 53 12.6 53.6v.4l-25.7 10.3Z" fill="#e4e4e4"/><path d="m302.5 556.4 34.3-7L282 398.3l-18.7-51.5s-11.9-41.4-17.2-57.3l-3.3-21.5-76.7 8.5s-21.4 31.5-15 82.7L148.3 552l34.3 1.8 28.7-194.4 50.4 106.5s15.8 45.5 27.2 55.4Z" fill="#2f2e41"/><path d="M196.9 283.7a11.5 11.5 0 0 0-1.8 0l-35.8-40.5 4.1-12.4-18-8.8-9.5 21.4a8.7 8.7 0 0 0 2.4 10.2l47 39.7a11.4 11.4 0 1 0 11.6-9.6Z" fill="#ffb7b7"/><path d="m142.2 228 14-39.8c1.6-4.7 3.5-7.6 5.9-8.5a3.6 3.6 0 0 1 2.9 0l6.2 7.9 5.9 24.4-15 35.2Z" fill="#e4e4e4"/><path d="M234.8 148h-61.4a4.8 4.8 0 0 1-4.8-4.8v-26.4a35.5 35.5 0 0 1 71 0v26.4a4.8 4.8 0 0 1-4.8 4.8Z" fill="#2f2e41"/><circle cx="211.4" cy="121.4" r="26" fill="#ffb7b7"/><path d="M248 119.4h-37.6l-.4-5.4-1.9 5.4h-5.8l-.7-10.7-3.9 10.7h-11.1v-.5a28 28 0 0 1 28-28h5.3a28 28 0 0 1 28 28Z" fill="#2f2e41"/><path d="M210.1 153a4.9 4.9 0 0 1-.8-.1l-27.5-4.9v-45.4H212l-.7.8c-10.4 12.2-2.6 32 3 42.6a4.7 4.7 0 0 1-.3 5 4.7 4.7 0 0 1-3.9 2Z" fill="#2f2e41"/><path d="M539.5 262.2a33.5 33.5 0 0 1-5.1.1 1.1 1.1 0 0 0-1.3 1l-3.3 24.7a10 10 0 0 1-2 4.9 10.7 10.7 0 0 0-2.5 8.1v42s-.2 5.5 4 5.5a62.1 62.1 0 0 0 15.6 0s3.4-.6 3.4-5.8v-41.3a10.1 10.1 0 0 0-2.1-8.2 10.3 10.3 0 0 1-2-4.8l-3.5-25.2a1.1 1.1 0 0 0-1.2-1Z" fill="#fff"/><path d="M537.1 349.7a62.7 62.7 0 0 1-7.8-.5 4.2 4.2 0 0 1-3-1.2c-1.8-1.9-1.7-5-1.7-5.1V301a11.4 11.4 0 0 1 2.6-8.6 9.3 9.3 0 0 0 2-4.5l3.2-24.7a1.8 1.8 0 0 1 2-1.6 32.7 32.7 0 0 0 5-.1 1.8 1.8 0 0 1 2 1.6l3.4 25.2a9.6 9.6 0 0 0 2 4.5 10.8 10.8 0 0 1 2.2 8.7v41.2c0 5.7-4 6.5-4 6.5a63.1 63.1 0 0 1-7.9.5Zm-2.8-86.7a.4.4 0 0 0-.5.4l-3.3 24.7a10.7 10.7 0 0 1-2.2 5.2 10 10 0 0 0-2.3 7.6V343s0 2.6 1.3 4a2.8 2.8 0 0 0 2 .8h.2a61.5 61.5 0 0 0 15.3 0s2.8-.6 2.8-5v-41.5a9.4 9.4 0 0 0-2-7.6 11 11 0 0 1-2.2-5.2l-3.4-25.3a.4.4 0 0 0-.4-.3 34.4 34.4 0 0 1-5.3.1Z" fill="#3f3d56"/><path d="M534.3 301.7h5.2a7.8 7.8 0 0 1 7.9 7.9v19.6a7.8 7.8 0 0 1-7.9 7.8h-5.2a7.8 7.8 0 0 1-7.8-7.8v-19.6a7.8 7.8 0 0 1 7.8-7.9Z" fill="#658fff"/><path d="M362.5 228.2a33.5 33.5 0 0 1-5.1.1 1.1 1.1 0 0 0-1.3 1l-3.3 24.7a10 10 0 0 1-2 4.9 10.7 10.7 0 0 0-2.5 8.1v42s-.2 5.5 4 5.5a62.1 62.1 0 0 0 15.6 0s3.4-.6 3.4-5.8v-41.3a10.1 10.1 0 0 0-2.1-8.2 10.3 10.3 0 0 1-2-4.8l-3.5-25.2a1.1 1.1 0 0 0-1.2-1Z" fill="#fff"/><path d="M360.1 315.7a62.7 62.7 0 0 1-7.8-.5 4.2 4.2 0 0 1-3-1.2c-1.8-1.9-1.7-5-1.7-5.1V267a11.4 11.4 0 0 1 2.6-8.6 9.3 9.3 0 0 0 2-4.5l3.2-24.7a1.8 1.8 0 0 1 2-1.6 32.7 32.7 0 0 0 5-.1 1.8 1.8 0 0 1 2 1.6l3.4 25.2a9.6 9.6 0 0 0 2 4.5 10.8 10.8 0 0 1 2.2 8.7v41.2c0 5.7-4 6.5-4 6.5a63.1 63.1 0 0 1-7.9.5Zm-2.8-86.7a.4.4 0 0 0-.5.4l-3.3 24.7a10.7 10.7 0 0 1-2.2 5.2 10 10 0 0 0-2.3 7.6V309s0 2.6 1.3 4a2.8 2.8 0 0 0 2 .8h.2a61.5 61.5 0 0 0 15.3 0s2.8-.6 2.8-5v-41.5a9.4 9.4 0 0 0-2-7.6 11 11 0 0 1-2.2-5.2l-3.4-25.3a.4.4 0 0 0-.4-.3 34.4 34.4 0 0 1-5.3.1Z" fill="#3f3d56"/><path d="M357.3 267.7h5.2a7.8 7.8 0 0 1 7.9 7.9v19.6a7.8 7.8 0 0 1-7.9 7.8h-5.2a7.8 7.8 0 0 1-7.8-7.8v-19.6a7.8 7.8 0 0 1 7.8-7.9Z" fill="#658fff"/><path d="M332.5 192.2a33.5 33.5 0 0 1-5.1.1 1.1 1.1 0 0 0-1.3 1l-3.3 24.7a10 10 0 0 1-2 4.9 10.7 10.7 0 0 0-2.5 8.1v42s-.2 5.5 4 5.5a62.1 62.1 0 0 0 15.6 0s3.4-.6 3.4-5.8v-41.3a10.1 10.1 0 0 0-2.1-8.2 10.3 10.3 0 0 1-2-4.8l-3.5-25.2a1.1 1.1 0 0 0-1.2-1Z" fill="#fff"/><path d="M330.1 279.7a62.7 62.7 0 0 1-7.8-.5 4.2 4.2 0 0 1-3-1.2c-1.8-1.9-1.7-5-1.7-5.1V231a11.4 11.4 0 0 1 2.6-8.6 9.3 9.3 0 0 0 2-4.5l3.2-24.7a1.8 1.8 0 0 1 2-1.6 32.7 32.7 0 0 0 5-.1 1.8 1.8 0 0 1 2 1.6l3.4 25.2a9.6 9.6 0 0 0 2 4.5 10.8 10.8 0 0 1 2.2 8.7v41.2c0 5.7-4 6.5-4 6.5a63.1 63.1 0 0 1-7.9.5Zm-2.8-86.7a.4.4 0 0 0-.5.4l-3.3 24.7a10.7 10.7 0 0 1-2.2 5.2 10 10 0 0 0-2.3 7.6V273s0 2.6 1.3 4a2.8 2.8 0 0 0 2 .8h.2a61.5 61.5 0 0 0 15.3 0s2.8-.6 2.8-5v-41.5a9.4 9.4 0 0 0-2-7.6 11 11 0 0 1-2.2-5.2l-3.4-25.3a.4.4 0 0 0-.4-.3 34.4 34.4 0 0 1-5.3.1Z" fill="#3f3d56"/><path d="M327.3 231.7h5.2a7.8 7.8 0 0 1 7.9 7.9v19.6a7.8 7.8 0 0 1-7.9 7.8h-5.2a7.8 7.8 0 0 1-7.8-7.8v-19.6a7.8 7.8 0 0 1 7.8-7.9Z" fill="#658fff"/><circle cx="56.2" cy="46" r="25" fill="#f0f0f0"/><circle cx="632.2" cy="25" r="25" fill="#f0f0f0"/><circle cx="346.2" cy="95" r="18" fill="#f0f0f0"/></svg>