<svg xmlns="http://www.w3.org/2000/svg" data-name="Layer 1" width="676" height="676"><path d="M676 338a336.9 336.9 0 0 1-27.2 133.1l-1.1 2.6a338.6 338.6 0 0 1-368.4 197.2l-6-1a335 335 0 0 1-61.2-18.1l-9.5-4-6.5-3A338.4 338.4 0 0 1 0 338a338 338 0 0 1 676 0Z" fill="#658fff"/><path d="m279.4 671-6.1-1.2c-1.3-38.3-5.9-117-21.3-199.3-8.5-45-20.2-91.3-36.5-132.6a412.6 412.6 0 0 0-19-41.8c-16.5-31-36.4-57.2-60.6-74.9l3.5-4.8q30.2 22 54.3 62 7.2 12 13.8 25.6 7.2 14.5 13.6 30.8 4.1 10.4 8 21.5 16.7 48.2 28.5 110 2.5 13.6 4.9 28c12.1 73.9 15.8 142.3 16.9 176.6ZM202.6 647.8l-6.5-3a491 491 0 0 0-13-77.5 254.6 254.6 0 0 0-11.7-35.2c-8-18.8-18.4-34.7-31.8-44.5l3.5-4.9c14 10.3 24.9 26.5 33.3 45.5a312.4 312.4 0 0 1 19.9 70.2 560 560 0 0 1 6.3 49.4Z" opacity=".2"/><circle cx="102.3" cy="191" r="30.1" opacity=".2"/><circle cx="112" cy="450" r="30.1" opacity=".2"/><path d="M221.7 241.5c-6.4 36 7.7 68.6 7.7 68.6s24.4-25.8 30.8-61.8-7.7-68.5-7.7-68.5-24.4 25.7-30.8 61.7ZM121.7 327c34.4 12.5 68.9 4.5 68.9 4.5s-21.2-28.4-55.5-41-68.9-4.5-68.9-4.5 21.2 28.4 55.5 41ZM115.9 556.3c24 8.8 48.3 3 48.3 3s-14.8-20-38.9-28.7-48.3-3-48.3-3 14.8 20 38.9 28.7Z" opacity=".2"/><circle cx="337.3" cy="281.1" r="131.8" fill="#d0cde1"/><path d="M285.8 382s16.5 78.2 16.5 86.4 78.2 45.3 78.2 45.3l70-12.3 24.8-74.1S434 365.5 434 340.8Z" fill="#d0cde1"/><path d="m648.8 471.1-1.1 2.6a338.6 338.6 0 0 1-368.4 197.2l-6-1a335 335 0 0 1-61.2-18.1l-9.5-4-6.5-3a337.6 337.6 0 0 1-55.2-32.2l-15.7-45.3 8.8-6.7 18-13.8 19.4-14.7 5-3.9 75.6-57.7 5.6-4.2 39.2-30s42.6 69.2 104.3 48.6 60.4-79.6 60.4-79.6ZM223 175s41.9-90.7 122-69.8 125.6 52.3 129 83.7-1.7 78.4-1.7 78.4-8.7-64.5-64.5-50.5-143 3.4-143 3.4L251 345.7s-15.7-22.6-33-8.7-50.6-134.2 5.1-162Z" fill="#2f2e41"/><path d="m212.1 651.8-9.5-4-6.5-3a338.8 338.8 0 0 1-87.6-58.6c9.2-12.6 16.7-19 16.7-19H187l9.3 31.2ZM594.7 464.3l53 9.4a338 338 0 0 1-56.8 88.6Z" fill="#2f2e41"/></svg>